<?xml version="1.0" encoding="UTF-8"?>
<svg id="Layer_1" data-name="Layer 1" xmlns="http://www.w3.org/2000/svg" viewBox="0 0 555 555">
  <defs>
    <style>
      .cls-1 {
        fill: lime;
      }
    </style>
  </defs>
  <path class="cls-1" d="m212.53,32.12c10.24.07,18.64,4.19,25.83,11.36,20.41,20.39,40.93,40.69,61.4,61.02,70.7,70.22,141.37,140.48,212.14,210.63,10.05,9.96,14.77,21.5,10.51,35.2-1.94,6.23-5.56,11.82-10.18,16.45-47.93,48.05-96.13,95.84-144.35,143.6-15.1,14.96-35.42,14.34-51.18-1.3-65.25-64.78-130.47-129.58-195.71-194.38-25.56-25.39-51.12-50.77-76.68-76.16-16.98-16.86-17.08-36.36-.22-53.11,47.42-47.12,94.9-94.19,142.25-141.38,7.32-7.3,15.62-11.87,26.2-11.94Zm130.71,453.32c48.21-47.88,96.61-95.95,144.61-143.63.2-.2.2-.51,0-.71-91.59-90.97-183.48-182.24-274.74-272.89-.2-.2-.51-.2-.71,0-48.08,47.75-96.47,95.82-144.61,143.64-.2.2-.2.51,0,.71,91.41,90.79,183.2,181.96,274.74,272.88.2.2.51.2.71,0Z"/>
  <path class="cls-1" d="m350.9,89.2c-28.83-28.62-57.27-56.87-85.47-84.87-.3-.3-.12-.82.31-.86,125.68-12.04,273.62,88.48,286.76,249.4.02.29-.21.55-.51.55h-32.48c-.24,0-.45-.17-.5-.41-2.34-11.89-4-23.8-7.11-35.34-19.02-70.75-61.85-122.49-127.17-156.13-2.99-1.54-4.66-1-6.86,1.23-8.69,8.79-17.58,17.4-26.4,26.06-.25.24-.6.39-.57.37Z"/>
  <path class="cls-1" d="m204.59,463.66c29.2,29.02,57.59,57.24,85.84,85.32.26.26.18.7-.16.83-29.99,11.32-123.53-14.63-171-48.64C50.2,451.7,11.86,384.49,2.5,300.21c-.03-.3.2-.56.5-.56h33.3c.25,0,.46.19.5.43,11.7,87.28,56.61,151.14,134.93,192.23,1.7.89,3.81.54,5.14-.84,9.22-9.5,18.11-18.66,26.99-27.81.2-.2.53-.21.73,0Z"/>
</svg>